HIERARCHY
ROOT Hips
{
    OFFSET 0.000000 0.000000 0.000000
    CHANNELS 6 Xposition Yposition Zposition Zrotation Xrotation Yrotation
    JOINT Spine
    {
        OFFSET -0.000000 0.083210 0.000000
        CHANNELS 3 Zrotation Xrotation Yrotation
        JOINT Spine1
        {
            OFFSET -0.000000 0.256334 0.000000
            CHANNELS 3 Zrotation Xrotation Yrotation
            JOINT Neck
            {
                OFFSET -0.000000 0.275576 0.002912
                CHANNELS 3 Zrotation Xrotation Yrotation
                JOINT Head
                {
                    OFFSET -0.000000 0.157287 0.020295
                    CHANNELS 3 Zrotation Xrotation Yrotation
                    End Site
                    {
                        OFFSET -0.000000 0.202951 0.000000
                    }
                }
            }
            JOINT LeftShoulder
            {
                OFFSET 0.041044 0.235234 -0.000041
                CHANNELS 3 Zrotation Xrotation Yrotation
                JOINT LeftArm
                {
                    OFFSET 0.117964 0.000000 0.000000
                    CHANNELS 3 Zrotation Xrotation Yrotation
                    JOINT LeftForeArm
                    {
                        OFFSET 0.291248 0.000000 0.000000
                        CHANNELS 3 Zrotation Xrotation Yrotation
                        JOINT LeftHand
                        {
                            OFFSET 0.245673 0.000000 0.000000
                            CHANNELS 3 Zrotation Xrotation Yrotation
                            End Site
                            {
                                OFFSET 0.152213 0.000000 0.000000
                            }
                        }
                    }
                }
            }
            JOINT RightShoulder
            {
                OFFSET -0.040052 0.235234 -0.000041
                CHANNELS 3 Zrotation Xrotation Yrotation
                JOINT RightArm
                {
                    OFFSET -0.117964 0.000000 0.000000
                    CHANNELS 3 Zrotation Xrotation Yrotation
                    JOINT RightForeArm
                    {
                        OFFSET -0.291248 0.000000 0.000000
                        CHANNELS 3 Zrotation Xrotation Yrotation
                        JOINT RightHand
                        {
                            OFFSET -0.245673 0.000000 0.000000
                            CHANNELS 3 Zrotation Xrotation Yrotation
                            End Site
                            {
                                OFFSET -0.152213 0.000000 0.000000
                            }
                        }
                    }
                }
            }
        }
    }
    JOINT LeftUpLeg
    {
        OFFSET 0.101475 0.000000 0.000000
        CHANNELS 3 Zrotation Xrotation Yrotation
        JOINT LeftLeg
        {
            OFFSET -0.000000 -0.446535 0.000000
            CHANNELS 3 Zrotation Xrotation Yrotation
            JOINT LeftFoot
            {
                OFFSET -0.000000 -0.400037 0.000000
                CHANNELS 3 Zrotation Xrotation Yrotation
                JOINT LeftToeBase
                {
                    OFFSET -0.000000 -0.065959 0.152213
                    CHANNELS 3 Zrotation Xrotation Yrotation
                    End Site
                    {
                        OFFSET -0.000000 0.000000 0.040590
                    }
                }
            }
        }
    }
    JOINT RightUpLeg
    {
        OFFSET -0.101475 0.000000 0.000000
        CHANNELS 3 Zrotation Xrotation Yrotation
        JOINT RightLeg
        {
            OFFSET -0.000000 -0.446535 0.000000
            CHANNELS 3 Zrotation Xrotation Yrotation
            JOINT RightFoot
            {
                OFFSET -0.000000 -0.400037 0.000000
                CHANNELS 3 Zrotation Xrotation Yrotation
                JOINT RightToeBase
                {
                    OFFSET -0.000000 -0.065959 0.152213
                    CHANNELS 3 Zrotation Xrotation Yrotation
                    End Site
                    {
                        OFFSET -0.000000 0.000000 0.040590
                    }
                }
            }
        }
    }
}
MOTION
Frames:    10
Frame Time:    0.008333
-0.411232    0.901816    -0.023177    -9.123230    14.032684    14.889514    -4.985565    19.748161    2.298550    -1.872041    5.709146    0.573180    4.527502    8.911356    0.491631    -3.430331    -2.760626    1.828244    -0.535910    7.748344    -25.466631    -39.257469    36.172520    -32.307671    12.598284    -1.231351    -15.849609    9.206625    -0.075239    -7.500311    4.395599    11.880175    29.796637    28.837442    36.789337    38.617546    -28.820057    -18.049400    14.401323    -6.370461    -14.420671    -1.085400    25.989321    -40.964527    22.505922    -10.804947    33.434280    14.278763    -3.843618    -0.656765    -6.916402    0.827268    4.639742    -6.562107    -16.031883    -19.826956    -0.219843    12.499887    47.025078    -10.529066    13.916258    -11.732082    -15.095440    0.030983    -9.229939    0.291966    
-0.411254    0.901491    -0.028464    -8.801662    13.935778    13.825993    -4.850344    19.626532    2.622519    -2.043155    5.725113    0.699607    4.429001    9.181963    0.437010    -3.635036    -2.921721    1.777912    -0.746461    7.531894    -24.899740    -40.242527    36.703159    -31.820408    14.161182    -0.902852    -17.311464    9.530271    0.630284    -7.592175    4.332947    12.061774    29.838345    29.354994    35.965591    37.642632    -29.043989    -17.888197    14.746686    -6.167934    -14.137694    -1.146233    26.046259    -40.728489    22.368902    -10.848862    33.304047    14.742915    -3.781436    -0.625489    -6.407392    0.831947    4.850215    -6.505671    -16.168434    -19.137638    -0.033124    11.839551    46.778450    -9.716982    13.818721    -11.600618    -15.243072    0.030043    -9.187345    0.284109    
-0.411740    0.901128    -0.033532    -8.507548    13.827681    12.680358    -4.824779    19.429066    3.077692    -2.091110    5.799767    0.859495    4.417246    9.416752    0.383449    -3.904234    -3.018097    1.753859    -0.877525    7.239635    -24.327719    -41.034428    37.377182    -31.478086    15.447820    -0.509595    -18.732655    10.254370    1.367764    -7.639032    4.371478    12.116807    29.721462    29.792927    35.298801    36.650730    -29.190445    -17.795904    15.184382    -5.985078    -13.910927    -1.190187    26.267454    -40.409924    22.364912    -10.928019    33.144352    15.432827    -3.838087    -0.517496    -6.190948    0.812375    4.964418    -6.304477    -16.252693    -18.500275    0.193907    11.147827    46.527599    -8.887632    13.787683    -11.575252    -15.339252    0.034042    -8.993330    0.327177    
-0.412327    0.900815    -0.038609    -8.191557    13.673503    11.567774    -4.804293    19.244900    3.490191    -2.098248    5.949334    1.004010    4.314359    9.557756    0.370716    -3.997117    -3.071495    1.731459    -0.909844    6.897152    -23.713192    -41.639935    37.962818    -31.235285    16.335009    -0.195989    -20.270622    10.923062    1.999056    -7.781404    4.305370    11.999563    29.618401    30.427357    34.704514    35.591869    -29.423969    -17.738754    15.646291    -5.693210    -13.700159    -1.253139    26.409933    -40.056240    22.282127    -10.966078    32.944378    16.086136    -3.938251    -0.329448    -5.953556    0.785387    5.014929    -6.074928    -16.369473    -17.805737    0.419453    10.491955    46.203079    -8.110799    13.727216    -11.552071    -15.451769    0.026266    -9.122638    0.249729    
-0.413134    0.900406    -0.043629    -7.900479    13.485401    10.542757    -4.759880    19.097456    3.858647    -2.045259    6.036939    1.130463    4.386351    9.828435    0.237549    -4.419894    -3.199529    1.658449    -0.902097    6.584133    -23.184881    -42.195900    38.607258    -30.980675    17.094032    -0.053217    -21.743351    11.697472    2.455628    -7.786249    4.281900    11.918908    29.454866    30.938644    34.237434    34.609993    -29.801762    -17.690086    15.955040    -5.258575    -13.516290    -1.327659    26.537075    -39.710323    22.118122    -11.029012    32.724743    16.629112    -4.005497    -0.140333    -5.558279    0.768446    5.074248    -5.920744    -16.505932    -17.051876    0.623719    9.953185    45.802715    -7.510900    13.659367    -11.657297    -15.456649    0.018070    -9.086666    0.172317    
-0.414220    0.900012    -0.048750    -7.598795    13.299501    9.582941    -4.767424    18.968733    4.194842    -1.898750    6.080442    1.237061    4.304688    10.030476    0.214729    -4.499641    -3.202294    1.632577    -0.817684    6.270505    -22.745178    -42.750031    39.375584    -30.692520    17.878595    -0.102949    -23.119375    12.273297    2.729890    -7.931299    4.316313    11.829242    29.146852    31.259298    33.883595    33.814342    -30.238840    -17.607079    16.147091    -4.790657    -13.318635    -1.395073    26.619749    -39.413467    22.205179    -10.875324    32.563740    16.828852    -4.101105    0.080034    -5.187124    0.752981    5.161391    -5.768459    -16.666462    -16.288206    0.731182    9.353709    45.353596    -7.098003    13.735737    -11.714784    -15.206845    0.027962    -9.243469    0.263213    
-0.415654    0.899582    -0.053764    -7.313083    13.074552    8.653255    -4.791090    18.871704    4.492136    -1.677054    6.107634    1.325011    4.223150    10.266308    0.233101    -4.645772    -3.292519    1.653307    -0.712789    5.960220    -22.334862    -43.290096    40.095806    -30.306145    18.458933    -0.336378    -24.540657    12.761819    2.811064    -8.059501    4.283666    11.651116    28.918585    31.758728    33.776722    32.921837    -31.069540    -17.581223    16.223227    -4.207805    -13.149394    -1.541073    26.734333    -39.067841    22.248728    -10.775687    32.358124    17.136097    -4.162485    0.339119    -4.886936    0.737429    5.209992    -5.631461    -16.782259    -15.509088    0.794437    8.716569    44.905247    -6.314587    13.608060    -11.861845    -15.223661    0.022530    -9.105758    0.214508    
-0.417181    0.899133    -0.058878    -7.029930    12.839660    7.821220    -4.776025    18.805981    4.698359    -1.446328    6.090115    1.383164    4.178396    10.518375    0.252923    -4.841136    -3.355607    1.690039    -0.555800    5.781651    -22.010143    -43.719521    40.740662    -29.908510    18.978197    -0.703711    -25.971222    12.966538    2.782639    -8.182977    4.207278    11.414489    28.755953    32.670452    33.039852    31.701914    -31.410894    -17.226103    16.856754    -3.930173    -12.563893    -1.467037    26.762419    -38.741718    22.061066    -10.722502    32.059578    17.447271    -4.256508    0.623087    -4.460748    0.728558    5.342972    -5.515619    -16.930544    -14.723560    0.456972    7.788760    44.503143    -5.219532    13.495757    -11.895558    -14.987787    0.010200    -9.290747    0.095641    
-0.418928    0.898641    -0.063984    -6.739799    12.580132    7.025833    -4.796856    18.782206    4.888880    -1.160437    6.050470    1.430434    4.151991    10.718289    0.291330    -5.042489    -3.393788    1.749533    -0.381229    5.639330    -21.728315    -43.999603    41.589558    -29.608536    19.568357    -1.234897    -27.195692    12.979607    2.599393    -8.312096    4.183469    11.171322    28.459173    33.276047    32.742271    30.730133    -32.113792    -17.122274    17.279535    -3.594586    -12.230593    -1.449267    26.753004    -38.385345    21.816891    -10.660187    31.698792    17.942415    -4.395705    0.942824    -4.203590    0.725528    5.562918    -5.415123    -17.070662    -13.905229    0.313337    7.016057    44.024986    -4.244434    13.618650    -12.064319    -14.820850    0.013465    -9.147802    0.127752    
-0.420781    0.898024    -0.069100    -6.458789    12.323956    6.292685    -4.765368    18.745850    5.005793    -0.895420    6.024646    1.457643    4.116888    10.892041    0.339133    -5.235092    -3.422951    1.815177    -0.163807    5.499357    -21.501051    -44.267361    42.489498    -29.258221    20.031471    -2.185816    -28.405970    13.091941    1.962198    -8.493972    4.093256    10.973063    28.149252    33.905655    32.489399    29.829727    -33.033001    -17.195456    17.750742    -3.202626    -12.023545    -1.383980    26.709818    -38.080280    21.928766    -10.329648    31.435213    17.857113    -4.493975    1.252967    -3.833094    0.723762    5.730303    -5.344512    -17.212503    -13.084677    0.276575    6.404341    43.505226    -3.463829    13.739550    -12.110129    -14.589124    0.014880    -9.304848    0.139367    
